<svg width="29" height="29" viewBox="0 0 29 29" fill="none" xmlns="http://www.w3.org/2000/svg">
<g clip-path="url(#clip0_33_330)">
<path fill-rule="evenodd" clip-rule="evenodd" d="M9.7315 25.6997H5.73427C4.65541 25.6997 3.98411 24.3906 4.53121 23.4582L6.09297 20.8544C6.90804 22.7304 8.16415 24.2997 9.7315 25.6997ZM11.3114 8.13819C15.1593 4.88319 19.4398 6.1906 23.0532 6.892C24.1209 7.1006 25.2124 6.66664 25.8488 5.78184L28.2452 2.64278C28.6318 2.10378 28.5732 1.3652 28.1056 0.896198C27.5041 0.292798 26.502 0.392159 26.0302 1.10196C23.4664 4.46755 23.8851 4.48841 19.1119 3.38243C17.959 3.11503 16.7615 3.00544 15.592 3.19444C9.22208 4.22343 4.47397 10.0558 5.10342 16.8178L0.888489 24.1486C-0.204325 26.0148 1.1383 28.4997 3.29602 28.4997H17.2486C22.8313 28.5137 26.4154 24.8651 27.1552 19.9637C27.9563 14.6437 24.5452 9.97475 19.7259 8.87715C15.2346 7.85375 10.6289 10.9714 10.601 15.5914C10.5815 19.076 13.1118 21.974 16.4224 22.5354C18.929 22.9596 21.4971 21.4238 21.7622 18.8884C22.0274 16.3642 20.0651 14.2338 17.6031 14.2338C16.8327 14.2338 16.2089 14.8596 16.2089 15.6338C16.2089 16.4066 16.8341 17.0338 17.6059 17.0338C18.3763 17.0338 19.0016 17.6596 19.0016 18.4338C19.0016 19.2066 18.3763 19.8338 17.6059 19.8338C15.1439 19.8338 13.1788 17.7013 13.4426 15.1785C13.7092 12.6417 16.2702 11.1059 18.7769 11.5315C22.0874 12.0929 24.6038 14.9909 24.5843 18.4741C24.5578 23.0143 20.0581 26.1477 15.6254 25.2321C11.1788 24.3137 7.83617 20.3644 7.83617 15.6338C7.83617 12.6266 9.18719 9.93579 11.3114 8.13819Z" fill="#00ACEF"/>
</g>
<defs>
<clipPath id="clip0_33_330">
<rect width="28" height="28" fill="white" transform="translate(0.5 0.5)"/>
</clipPath>
</defs>
</svg>
