<svg width="18" height="18" viewBox="0 0 18 18" fill="none" xmlns="http://www.w3.org/2000/svg">
<g clip-path="url(#clip0_38_108)">
<path fill-rule="evenodd" clip-rule="evenodd" d="M15.7552 6.2025C16.6455 6.84375 17.25 7.8375 17.25 9C17.25 10.1625 16.6455 11.157 15.7552 11.7975C15.9353 12.879 15.6548 14.016 14.835 14.835C14.0138 15.6563 12.8775 15.9292 11.8005 15.7537C11.1623 16.647 10.1595 17.25 9 17.25C7.8375 17.25 6.8415 16.6447 6.20175 15.753C5.12325 15.9292 3.98625 15.657 3.16425 14.835C2.343 14.0138 2.07 12.8767 2.2515 11.7975C1.362 11.1578 0.75 10.1632 0.75 9C0.75 7.83675 1.362 6.8415 2.2515 6.2025C2.07 5.12325 2.343 3.98625 3.165 3.165C3.98475 2.3445 5.1225 2.06475 6.20775 2.24475C6.84375 1.353 7.83975 0.75 9 0.75C10.1587 0.75 11.16 1.35225 11.799 2.24475C12.8805 2.06475 14.016 2.346 14.835 3.165C15.6548 3.984 15.936 5.121 15.7552 6.2025ZM12.4357 6.1395C12.5159 6.19672 12.5841 6.26917 12.6362 6.35272C12.6884 6.43627 12.7236 6.52927 12.7398 6.62643C12.7561 6.72358 12.753 6.82299 12.7308 6.91895C12.7086 7.01492 12.6677 7.10558 12.6105 7.18575L8.8605 12.4357C8.7972 12.5244 8.71534 12.5982 8.62062 12.652C8.5259 12.7059 8.4206 12.7384 8.31203 12.7474C8.20346 12.7564 8.09423 12.7416 7.99195 12.7041C7.88967 12.6666 7.79678 12.6073 7.71975 12.5303L5.46975 10.2802C5.33313 10.1388 5.25754 9.94935 5.25924 9.7527C5.26095 9.55605 5.33983 9.36794 5.47889 9.22889C5.61794 9.08983 5.80605 9.01095 6.0027 9.00924C6.19935 9.00754 6.3888 9.08313 6.53025 9.21975L8.154 10.8435L11.3895 6.3135C11.5052 6.15169 11.6804 6.04246 11.8766 6.00983C12.0728 5.9772 12.2739 6.02384 12.4357 6.1395Z" fill="#00ACEF"/>
</g>
<defs>
<clipPath id="clip0_38_108">
<rect width="18" height="18" fill="white"/>
</clipPath>
</defs>
</svg>
