<svg width="25" height="14" viewBox="0 0 25 14" fill="none" xmlns="http://www.w3.org/2000/svg">
<path d="M7.69658 1.51254C7.68298 1.51254 7.66934 1.51666 7.65786 1.52463L0.530047 6.39039C0.511156 6.40328 0.5 6.42443 0.5 6.44749V7.75628C0.5 7.77897 0.511156 7.80049 0.530047 7.813L7.65786 12.6791C7.66939 12.6871 7.68298 12.6912 7.69658 12.6912C7.70773 12.6912 7.71852 12.6882 7.72873 12.6833C7.75142 12.6712 7.76539 12.6478 7.76539 12.6221V10.5372C7.76539 10.5149 7.75423 10.4933 7.73534 10.4808L2.78605 7.10153L7.73534 3.72335C7.75423 3.71013 7.76539 3.68894 7.76539 3.66588V1.58172C7.76539 1.55603 7.75142 1.53255 7.72873 1.52083C7.71852 1.51521 7.70773 1.51254 7.69658 1.51254Z" fill="white"/>
<path d="M24.4699 6.39039L17.3421 1.52463C17.3306 1.51671 17.317 1.51254 17.3033 1.51254C17.2922 1.51254 17.2814 1.51516 17.2712 1.52083C17.2485 1.53255 17.2346 1.55603 17.2346 1.58172V3.66663C17.2346 3.68932 17.2457 3.7105 17.2646 3.72335L22.2139 7.10153L17.2646 10.4808C17.2457 10.4933 17.2346 10.5148 17.2346 10.5379V12.6221C17.2346 12.6477 17.2485 12.6712 17.2712 12.6833C17.2814 12.6882 17.2922 12.6912 17.3033 12.6912C17.317 12.6912 17.3306 12.6871 17.3421 12.6791L24.4699 7.81296C24.4888 7.80044 24.5 7.77893 24.5 7.75624V6.44744C24.5 6.42443 24.4888 6.40328 24.4699 6.39039Z" fill="white"/>
<path d="M15.7581 0.371597H13.7659C13.7364 0.371597 13.7103 0.390113 13.7008 0.417722L9.1766 13.5373C9.16943 13.5581 9.17285 13.5815 9.18569 13.5993C9.19873 13.6174 9.21954 13.6284 9.24185 13.6284H11.2343C11.2636 13.6284 11.2897 13.6099 11.2993 13.5819L15.8234 0.463097C15.8306 0.44191 15.8272 0.418472 15.8143 0.400332C15.8013 0.382566 15.7804 0.371597 15.7581 0.371597Z" fill="white"/>
</svg>
