<svg width="18" height="18" viewBox="0 0 18 18" fill="none" xmlns="http://www.w3.org/2000/svg">
<path fill-rule="evenodd" clip-rule="evenodd" d="M15.5455 0C16.9011 0 18 1.09894 18 2.45455V15.5455C18 16.9011 16.9011 18 15.5455 18H2.45455C1.09894 18 0 16.9011 0 15.5455V2.45455C0 1.09894 1.09894 0 2.45455 0H15.5455ZM15.5455 1.63636C15.9973 1.63636 16.3636 2.00268 16.3636 2.45455V15.5455C16.3636 15.9973 15.9973 16.3636 15.5455 16.3636H11.4545V10.6363H13.1533C13.5054 10.6363 13.818 10.411 13.9295 10.0768L14.2919 8.98944C14.4244 8.59205 14.1286 8.18174 13.7098 8.18174H11.4545V6.54539C11.4545 6.1363 11.8636 5.72721 12.2727 5.72721H13.9091C14.361 5.72721 14.7273 5.36089 14.7273 4.90903V4.34776C14.7273 4.08347 14.5585 3.84652 14.3029 3.77908C13.2304 3.49605 12.2727 3.49605 12.2727 3.49605C10.2273 3.49605 9 4.90903 9 6.1363V8.18174H7.36364C6.91177 8.18174 6.54545 8.54804 6.54545 8.99992V9.8181C6.54545 10.27 6.91176 10.6363 7.36364 10.6363H9V16.3636H2.45455C2.00268 16.3636 1.63636 15.9973 1.63636 15.5455V2.45455C1.63636 2.00268 2.00268 1.63636 2.45455 1.63636H15.5455Z" fill="white"/>
</svg>
