<svg width="18" height="18" viewBox="0 0 18 18" fill="none" xmlns="http://www.w3.org/2000/svg">
<g clip-path="url(#clip0_35_511)">
<path fill-rule="evenodd" clip-rule="evenodd" d="M9 13.5C11.4853 13.5 13.5 11.4853 13.5 9C13.5 6.51472 11.4853 4.5 9 4.5C6.51472 4.5 4.5 6.51472 4.5 9C4.5 11.4853 6.51472 13.5 9 13.5ZM9 12C10.6568 12 12 10.6568 12 9C12 7.34314 10.6568 6 9 6C7.34314 6 6 7.34314 6 9C6 10.6568 7.34314 12 9 12Z" fill="white"/>
<path d="M13.5 3.75C13.0858 3.75 12.75 4.08579 12.75 4.5C12.75 4.91421 13.0858 5.25 13.5 5.25C13.9142 5.25 14.25 4.91421 14.25 4.5C14.25 4.08579 13.9142 3.75 13.5 3.75Z" fill="white"/>
<path fill-rule="evenodd" clip-rule="evenodd" d="M1.24047 3.20705C0.75 4.16965 0.75 5.42977 0.75 7.95V10.05C0.75 12.5702 0.75 13.8304 1.24047 14.7929C1.6719 15.6397 2.36031 16.3281 3.20705 16.7595C4.16965 17.25 5.42977 17.25 7.95 17.25H10.05C12.5702 17.25 13.8304 17.25 14.7929 16.7595C15.6397 16.3281 16.3281 15.6397 16.7595 14.7929C17.25 13.8304 17.25 12.5702 17.25 10.05V7.95C17.25 5.42977 17.25 4.16965 16.7595 3.20705C16.3281 2.36031 15.6397 1.6719 14.7929 1.24047C13.8304 0.75 12.5702 0.75 10.05 0.75H7.95C5.42977 0.75 4.16965 0.75 3.20705 1.24047C2.36031 1.6719 1.6719 2.36031 1.24047 3.20705ZM10.05 2.25H7.95C6.66513 2.25 5.79169 2.25117 5.11656 2.30632C4.45893 2.36005 4.12263 2.45744 3.88803 2.57698C3.32354 2.8646 2.8646 3.32354 2.57698 3.88803C2.45744 4.12263 2.36005 4.45893 2.30632 5.11656C2.25117 5.79169 2.25 6.66513 2.25 7.95V10.05C2.25 11.3349 2.25117 12.2083 2.30632 12.8834C2.36005 13.5411 2.45744 13.8774 2.57698 14.112C2.8646 14.6764 3.32354 15.1354 3.88803 15.423C4.12263 15.5425 4.45893 15.64 5.11656 15.6937C5.79169 15.7488 6.66513 15.75 7.95 15.75H10.05C11.3349 15.75 12.2083 15.7488 12.8834 15.6937C13.5411 15.64 13.8774 15.5425 14.112 15.423C14.6764 15.1354 15.1354 14.6764 15.423 14.112C15.5425 13.8774 15.64 13.5411 15.6937 12.8834C15.7488 12.2083 15.75 11.3349 15.75 10.05V7.95C15.75 6.66513 15.7488 5.79169 15.6937 5.11656C15.64 4.45893 15.5425 4.12263 15.423 3.88803C15.1354 3.32354 14.6764 2.8646 14.112 2.57698C13.8774 2.45744 13.5411 2.36005 12.8834 2.30632C12.2083 2.25117 11.3349 2.25 10.05 2.25Z" fill="white"/>
</g>
<defs>
<clipPath id="clip0_35_511">
<rect width="18" height="18" fill="white"/>
</clipPath>
</defs>
</svg>
