<svg width="25" height="24" viewBox="0 0 25 24" fill="none" xmlns="http://www.w3.org/2000/svg">
<path fill-rule="evenodd" clip-rule="evenodd" d="M14.303 5.33333C14.303 3.49238 15.8022 2 17.6515 2C19.5008 2 21 3.49238 21 5.33333C21 7.17428 19.5008 8.66667 17.6515 8.66667C16.7177 8.66667 15.8738 8.28596 15.2671 7.67347L10.6317 10.8295C10.6745 11.0425 10.697 11.2625 10.697 11.4872C10.697 11.9322 10.609 12.3576 10.4496 12.7464L15.5323 16.0858C16.1092 15.6161 16.8473 15.3333 17.6515 15.3333C19.5008 15.3333 21 16.8257 21 18.6667C21 20.5076 19.5008 22 17.6515 22C15.8022 22 14.303 20.5076 14.303 18.6667C14.303 18.1845 14.4062 17.7255 14.5917 17.3111L9.55007 13.9987C8.96196 14.5098 8.1916 14.8205 7.34848 14.8205C5.49917 14.8205 4 13.3281 4 11.4872C4 9.64623 5.49917 8.15385 7.34848 8.15385C8.4119 8.15385 9.35853 8.64725 9.97145 9.41518L14.4639 6.35642C14.3594 6.03359 14.303 5.6896 14.303 5.33333Z" fill="white"/>
</svg>
