<svg width="18" height="18" viewBox="0 0 18 18" fill="none" xmlns="http://www.w3.org/2000/svg">
<path fill-rule="evenodd" clip-rule="evenodd" d="M14.8371 2.93869C15.0985 2.87674 15.2807 2.81583 15.43 2.75186C15.6393 2.66221 15.8128 2.55481 16.0869 2.37393C16.3172 2.22191 16.6124 2.20867 16.8554 2.33946C17.0984 2.47024 17.25 2.72392 17.25 2.99989C17.25 3.81059 17.149 4.47505 16.9151 5.0598C16.7183 5.55166 16.4419 5.95115 16.1112 6.31476C15.9715 8.8371 15.2414 10.8179 14.1252 12.3186C12.9682 13.874 11.4289 14.8701 9.80632 15.4279C8.18842 15.9841 6.47897 16.1083 4.94752 15.92C3.42612 15.733 2.01978 15.2293 1.03953 14.4669C0.771094 14.2581 0.676731 13.8948 0.809629 13.5817C0.942529 13.2687 1.26942 13.0843 1.60608 13.1324C2.57055 13.2702 3.49897 13.0509 4.2624 12.7374C4.11211 12.6556 3.97041 12.5671 3.83871 12.4759C3.14306 11.9944 2.5818 11.3406 2.32917 10.8353C2.22463 10.6263 2.22355 10.3804 2.32626 10.1704C2.37924 10.0621 2.45671 9.96975 2.55078 9.89932C1.53507 9.06105 1.12499 7.90162 1.12499 7.12489C1.12499 6.89394 1.2314 6.67586 1.41344 6.53374C1.48998 6.47398 1.57631 6.43044 1.66731 6.40422C1.5913 6.18166 1.53232 5.95681 1.48737 5.73912C1.28804 4.77397 1.30573 3.68463 1.52238 2.818C1.59652 2.52143 1.84323 2.29954 2.14596 2.25714C2.44869 2.21474 2.74687 2.36032 2.89963 2.6251C3.70776 4.02586 5.19837 4.88207 6.58564 5.38926C7.23787 5.62771 7.84192 5.77966 8.2947 5.87308C8.39242 4.95764 8.64802 4.2027 9.04035 3.60308C9.55792 2.81199 10.2798 2.34394 11.055 2.13523C12.392 1.77531 13.8756 2.18536 14.8371 2.93869ZM8.0613 7.35634C7.54747 7.25315 6.84128 7.07982 6.07059 6.79806C5.05267 6.42592 3.87066 5.84563 2.88054 4.94678C2.89826 5.11219 2.92341 5.27619 2.95637 5.43574C3.12231 6.23924 3.43065 6.68924 3.7104 6.82912C4.05256 7.0002 4.21113 7.40137 4.0784 7.76017C3.8987 8.24595 3.42606 8.28577 2.99663 8.17845C3.34202 8.69625 3.96282 9.21255 4.99829 9.38512C5.35542 9.44467 5.61906 9.75082 5.62489 10.1128C5.63073 10.4749 5.37711 10.7893 5.02208 10.8604L4.36923 10.9909C4.4691 11.0777 4.57725 11.1628 4.69252 11.2426C5.21521 11.6045 5.74002 11.7606 6.19309 11.6473C6.53243 11.5625 6.88535 11.7235 7.04372 12.0354C7.20208 12.3472 7.12384 12.7272 6.85513 12.9511C6.37219 13.3531 5.80818 13.6756 5.24292 13.9433C4.97756 14.069 4.681 14.1931 4.35892 14.3023C4.60663 14.3551 4.86439 14.3985 5.13058 14.4313C6.45852 14.5945 7.93657 14.4844 9.31867 14.0094C10.696 13.5359 11.9692 12.7039 12.9217 11.4234C13.8727 10.1446 14.5365 8.37502 14.6255 5.97218C14.6325 5.783 14.7108 5.60347 14.8447 5.46961C15.1819 5.13237 15.4606 4.74583 15.5977 4.28572C15.3577 4.36052 15.0876 4.42526 14.7658 4.48678C14.5217 4.53344 14.2704 4.45617 14.0947 4.28045C13.5213 3.70705 12.3873 3.32998 11.4449 3.58366C11.0014 3.70306 10.5983 3.96152 10.2955 4.42429C9.98647 4.89678 9.75 5.63284 9.75 6.74992C9.75 6.96216 9.66007 7.16445 9.50257 7.30666C9.12907 7.64377 8.5005 7.44452 8.0613 7.35634Z" fill="white"/>
</svg>
